<?xml version="1.0" encoding="utf-8"?>
<!-- Generator: Adobe Illustrator 18.1.0, SVG Export Plug-In . SVG Version: 6.00 Build 0)  -->
<svg version="1.1" id="Layer_1" xmlns="http://www.w3.org/2000/svg" xmlns:xlink="http://www.w3.org/1999/xlink" x="0px" y="0px"
	 width="37.9px" height="37.9px" viewBox="0 0 37.9 37.9" enable-background="new 0 0 37.9 37.9" xml:space="preserve" preserveAspectRatio="xMidYMid meet">
<g id="gear" transform="translate(226.000000, 426.000000)">
	<path fill="#FFFFFF" d="M-207.1-398.1c-4.9,0-8.9-4-8.9-8.9c0-4.9,4-8.9,8.9-8.9
		c4.9,0,8.9,4,8.9,8.9C-198.1-402.1-202.1-398.1-207.1-398.1L-207.1-398.1z M-207.1-414.1c-3.9,0-7.1,3.2-7.1,7.1
		c0,3.9,3.2,7.1,7.1,7.1c3.9,0,7.1-3.2,7.1-7.1C-200-411-203.2-414.1-207.1-414.1L-207.1-414.1z"/>
	<path fill="#FFFFFF" d="M-204.4-388.1h-5.3l-1.5-4.6c-1-0.3-2-0.7-2.9-1.2l-4.4,2.2
		l-3.8-3.8l2.2-4.4c-0.5-0.9-0.9-1.9-1.2-2.9l-4.6-1.5v-5.3l4.6-1.5c0.3-1,0.7-2,1.2-2.9l-2.2-4.4l3.8-3.8l4.4,2.2
		c0.9-0.5,1.9-0.9,2.9-1.2l1.5-4.6h5.3l1.5,4.6c1,0.3,2,0.7,2.9,1.2l4.4-2.2l3.8,3.8l-2.2,4.4c0.5,0.9,0.9,1.9,1.2,2.9l4.6,1.5v5.3
		l-4.6,1.5c-0.3,1-0.7,2-1.2,2.9l2.2,4.4l-3.8,3.8l-4.4-2.2c-0.9,0.5-1.9,0.9-2.9,1.2L-204.4-388.1L-204.4-388.1z M-208.4-390h2.7
		l1.4-4.3l0.5-0.1c1.2-0.3,2.3-0.8,3.4-1.4l0.4-0.3l4.1,2l1.9-1.9l-2-4.1l0.3-0.4c0.6-1.1,1.1-2.2,1.4-3.4l0.1-0.5l4.3-1.4v-2.7
		l-4.3-1.4l-0.1-0.5c-0.3-1.2-0.8-2.3-1.4-3.4l-0.3-0.4l2-4.1l-1.9-1.9l-4.1,2l-0.4-0.3c-1.1-0.6-2.2-1.1-3.4-1.4l-0.5-0.1l-1.4-4.3
		h-2.7l-1.4,4.3l-0.5,0.1c-1.2,0.3-2.3,0.8-3.4,1.4l-0.4,0.3l-4.1-2l-1.9,1.9l2,4.1l-0.3,0.4c-0.6,1.1-1.1,2.2-1.4,3.4l-0.1,0.5
		l-4.3,1.4v2.7l4.3,1.4l0.1,0.5c0.3,1.2,0.8,2.3,1.4,3.4l0.3,0.4l-2,4.1l1.9,1.9l4.1-2l0.4,0.3c1.1,0.6,2.2,1.1,3.4,1.4l0.5,0.1
		L-208.4-390L-208.4-390z"/>
</g>
</svg>
